<?xml version="1.0" encoding="UTF-8" standalone="no"?>
<!-- Created with Inkscape (http://www.inkscape.org/) -->

<svg
   xmlns:dc="http://purl.org/dc/elements/1.1/"
   xmlns:cc="http://creativecommons.org/ns#"
   xmlns:rdf="http://www.w3.org/1999/02/22-rdf-syntax-ns#"
   xmlns:svg="http://www.w3.org/2000/svg"
   xmlns="http://www.w3.org/2000/svg"
   xmlns:sodipodi="http://sodipodi.sourceforge.net/DTD/sodipodi-0.dtd"
   xmlns:inkscape="http://www.inkscape.org/namespaces/inkscape"
   version="1.1"
   id="svg2"
   width="770.66669"
   height="62.666668"
   viewBox="0 0 770.66669 62.666668"
   sodipodi:docname="citation-6.svg"
   inkscape:version="0.92.2 5c3e80d, 2017-08-06">
  <metadata
     id="metadata8">
    <rdf:RDF>
      <cc:Work
         rdf:about="">
        <dc:format>image/svg+xml</dc:format>
        <dc:type
           rdf:resource="http://purl.org/dc/dcmitype/StillImage" />
        <dc:title></dc:title>
      </cc:Work>
    </rdf:RDF>
  </metadata>
  <defs
     id="defs6" />
  <sodipodi:namedview
     pagecolor="#ffffff"
     bordercolor="#666666"
     borderopacity="1"
     objecttolerance="10"
     gridtolerance="10"
     guidetolerance="10"
     inkscape:pageopacity="0"
     inkscape:pageshadow="2"
     inkscape:window-width="1440"
     inkscape:window-height="855"
     id="namedview4"
     showgrid="false"
     inkscape:zoom="0.37370241"
     inkscape:cx="385.33334"
     inkscape:cy="31.333334"
     inkscape:window-x="0"
     inkscape:window-y="1"
     inkscape:window-maximized="1"
     inkscape:current-layer="svg2" />
  <path
     style="fill:#ffffff;stroke-width:0.66666669"
     d="m 561.77004,60.718936 c -2.56274,-0.27081 -4.1854,-0.80667 -4.74016,-1.56535 -0.46394,-0.63447 -1.15335,-1.15359 -1.53203,-1.15359 -1.8531,0 -1.97504,-4.69481 -0.1645,-6.33333 0.73333,-0.66366 1.33333,-1.90761 1.33333,-2.76434 0,-0.85673 -0.6,-1.9324 -1.33333,-2.39037 -1.85868,-1.16077 -1.71278,-1.63308 1.45371,-4.70605 2.78018,-2.69807 2.78346,-2.70712 1.33334,-3.66997 -0.79954,-0.53088 -1.45372,-1.30648 -1.45372,-1.72355 0,-0.41708 -0.6,-1.13303 -1.33333,-1.591 -2.46821,-1.54142 -1.7041,-4.14218 2.34782,-7.99122 3.38139,-3.21208 3.93785,-3.49603 6.83333,-3.487 1.7337,0.005 3.90218,0.44363 4.81885,0.97385 3.32471,1.92306 3.55053,1.94629 4.53312,0.46644 1.68288,-2.53456 4.00697,-1.60509 6.10189,2.44031 0.4435,0.8564 0.64535,1.7181 0.44857,1.91488 -0.30257,0.30257 -3.28537,0.6506 -7.02024,0.8191 -0.74869,0.0338 -0.71525,0.28691 0.16667,1.26141 1.46138,1.61481 1.39232,2.90375 -0.23001,4.29283 -0.73333,0.62789 -1.33333,1.69641 -1.33333,2.37448 0,1.57716 -2.69438,2.80673 -7.16667,3.27048 -1.925,0.19961 -3.5,0.5817 -3.5,0.84909 0,0.55805 4.02001,1.30914 7.06466,1.31996 1.13556,0.004 2.75647,0.60734 3.60201,1.34067 0.84554,0.73333 2.10675,1.33333 2.80269,1.33333 1.88602,0 3.43955,4.2215 2.92773,7.95566 -0.57002,4.15874 -3.37812,6.71101 -7.38371,6.71101 -1.59738,0 -3.30387,0.10441 -3.79219,0.23202 -0.48832,0.12761 -2.64134,0.0467 -4.7845,-0.17975 z m 9.83128,-5.43076 1.9303,-2.04516 -2.14028,-1.95484 c -1.46496,-1.33803 -2.83724,-1.95484 -4.34914,-1.95484 -3.52786,0 -6.37552,0.76158 -6.37552,1.70507 0,0.47946 -0.6,1.06218 -1.33333,1.29493 -0.73333,0.23275 -1.33333,0.68275 -1.33333,1 0,0.31725 0.6,0.76725 1.33333,1 0.73333,0.23275 1.33333,0.82797 1.33333,1.3227 0,1.23848 1.06718,1.56343 5.3355,1.62467 3.26403,0.0468 3.88182,-0.17302 5.59914,-1.99253 z m -3.73759,-21.65965 c 0.15541,-2.65888 -0.11247,-3.76496 -1.26741,-5.23323 l -1.46446,-1.86176 -2.23259,2.437 c -2.31021,2.52173 -2.78708,4.74771 -1.52307,7.10953 0.56674,1.05895 1.27107,1.28491 3.5,1.12284 l 2.79048,-0.20291 z m 101.86722,24.91548 c -2.75886,-2.44251 -3.15267,-4.98735 -1.06426,-6.87734 0.73333,-0.66366 1.33333,-1.90761 1.33333,-2.76434 0,-0.85673 -0.6,-1.9324 -1.33333,-2.39037 -1.85014,-1.15544 -1.70947,-1.6363 1.34653,-4.60202 l 2.6798,-2.60069 -2.6798,-2.78892 c -3.71837,-3.8697 -3.56517,-5.35235 1.00127,-9.69016 3.3814,-3.21208 3.93786,-3.49603 6.83333,-3.487 1.73373,0.005 3.9022,0.44363 4.81887,0.97385 3.27706,1.8955 3.48753,1.91289 4.64113,0.38349 0.6626,-0.87838 1.6606,-1.40683 2.39127,-1.26612 1.1414,0.21982 4.30093,4.07884 4.30093,5.25312 0,0.69718 -2.56033,1.29275 -5.60333,1.30339 -2.47967,0.009 -2.55094,0.067 -1.5,1.22826 1.4614,1.61481 1.39233,2.90375 -0.23,4.29283 -0.73334,0.62789 -1.33334,1.6724 -1.33334,2.32112 0,1.7865 -2.2762,2.84727 -7.0704,3.29495 -5.3302,0.49775 -4.7276,1.42088 1.2946,1.98324 2.91187,0.27191 4.95827,0.84633 5.88807,1.65273 0.7838,0.67979 1.99447,1.23597 2.6904,1.23597 1.88607,0 3.4396,4.2215 2.92773,7.95566 -0.29746,2.17044 -0.97033,3.50604 -2.44486,4.85282 -1.964,1.79379 -2.285,1.85819 -9.2624,1.85819 -7.1774,0 -7.24474,-0.0148 -9.62554,-2.12266 z m 15.1778,-3.22837 1.90434,-2.01769 -1.74267,-1.74271 c -1.20593,-1.20595 -2.61453,-1.81301 -4.5732,-1.97093 -3.73267,-0.30095 -6.4972,0.30485 -6.4972,1.42374 0,0.49616 -0.6,1.09254 -1.33333,1.32529 -0.73334,0.23275 -1.33334,0.68275 -1.33334,1 0,0.31725 0.6,0.76725 1.33334,1 0.73333,0.23275 1.33333,0.82797 1.33333,1.3227 0,1.23848 1.0672,1.56343 5.33547,1.62467 3.25353,0.0467 3.88446,-0.1758 5.57326,-1.96507 z m -3.7032,-21.53998 c 0.2064,-3.23722 -1.09413,-6.44232 -2.61413,-6.44232 -1.54173,0 -4.5914,3.68083 -4.5914,5.54166 0,3.43259 1.09133,4.55464 4.20953,4.32791 l 2.79047,-0.20291 z m 77.17734,13.87852 c -0.98167,-0.9098 -2.33273,-1.65418 -3.00227,-1.65418 -1.73766,0 -2.84513,-1.61607 -2.59546,-3.78731 0.2444,-2.12465 2.3554,-2.95671 3.50666,-1.38219 1.01854,1.39292 3.40974,2.00767 5.78227,1.48657 l 2.04413,-0.44897 -2.0586,-2.01264 c -1.6088,-1.57291 -2.6332,-2.00472 -4.6886,-1.97635 -2.06666,0.0285 -2.5482,-0.17685 -2.2482,-0.95873 0.21214,-0.5528 -0.2488,-1.58255 -1.03713,-2.317 -1.0322,-0.96161 -1.419,-2.12148 -1.419,-4.25487 0,-5.63122 5.53547,-9.03865 11.49073,-7.07324 3.0984,1.02256 4.65567,4.49689 3.43794,7.67021 -0.8466,2.20624 -5.12287,0.38392 -6.2876,-2.67942 -0.75734,-1.99193 -2.24834,-2.05218 -3.58427,-0.14482 -1.22573,1.74994 -0.35107,3.2121 1.92153,3.2121 0.81494,0 2.00954,0.58324 2.6546,1.29609 0.64514,0.71285 1.80914,1.38785 2.58667,1.5 4.118,0.59398 4.06067,11.15695 -0.064,11.74951 -0.8126,0.11674 -1.85513,0.7351 -2.31667,1.37413 -1.45906,2.02009 -2.289,2.10083 -4.123,0.40111 z M 120.4735,47.333336 c -0.23352,-0.893 -0.90934,-1.33334 -2.04638,-1.33334 -2.25664,0 -4.91197,-1.25651 -5.47396,-2.5903 -3.1098,-7.38051 -1.96296,-16.80383 2.16958,-17.82706 1.0325,-0.25565 2.26928,-1.01632 2.7484,-1.69039 0.66562,-0.93644 1.73934,-1.22558 4.55128,-1.22558 3.17864,0 3.9457,0.26556 5.62886,1.94872 1.67884,1.67883 1.94872,2.45375 1.94872,5.59534 0,4.35518 -0.1566,4.45204 -7.22119,4.46615 -6.80141,0.0136 -7.38819,0.4208 -5.77171,4.00553 1.90637,4.22758 6.06483,5.28178 9.23721,2.34171 2.25272,-2.08775 3.75569,-1.56794 3.75569,1.29891 0,2.49888 -0.79883,3.33756 -3.78726,3.97618 -1.16634,0.24924 -2.47807,0.88388 -2.91497,1.41031 -1.12641,1.35725 -2.41588,1.18549 -2.82427,-0.37618 z m 2.65352,-17.75728 c 0.58298,-1.51923 -0.72032,-3.28961 -2.21544,-3.00942 -1.69267,0.31721 -2.28263,1.45054 -1.50827,2.89744 0.80319,1.50077 3.16355,1.57175 3.72371,0.11198 z m 135.96005,18.07709 c -0.21391,-0.55743 -1.28928,-1.19359 -2.38971,-1.41367 -2.56656,-0.51332 -3.51437,-1.68928 -3.24553,-4.02679 0.2619,-2.27713 2.38328,-2.91851 3.69948,-1.11851 0.64403,0.88077 1.74938,1.23916 3.82184,1.23916 2.93395,0 4.8083,-0.905 3.11782,-1.50539 -0.49996,-0.17757 -1.39164,-0.8865 -1.98149,-1.5754 -0.73687,-0.8606 -1.95831,-1.25255 -3.90338,-1.25255 -2.28774,0 -2.75454,-0.19903 -2.43285,-1.03732 0.23146,-0.60318 -0.19582,-1.59059 -1.02093,-2.3593 -1.04095,-0.9698 -1.41898,-2.12021 -1.41898,-4.31823 0,-2.52992 0.35971,-3.35596 2.31111,-5.30737 2.51035,-2.51035 5.47541,-3.01337 9.49752,-1.61126 2.7997,0.97598 4.27689,4.56426 3.12004,7.57896 -0.84661,2.20624 -5.1229,0.38392 -6.28758,-2.67942 -0.74543,-1.96063 -1.55942,-2.0144 -3.35236,-0.22145 -1.09536,1.09536 -1.21534,1.57387 -0.58504,2.33334 0.4361,0.52546 1.45967,0.95539 2.27462,0.95539 0.81494,0 2.0247,0.6 2.68836,1.33333 0.66366,0.73333 1.72342,1.33333 2.35502,1.33333 1.70472,0 2.77082,1.65258 3.11828,4.8337 0.4331,3.96518 -0.63492,6.27072 -3.44964,7.44679 -1.29635,0.54165 -2.357,1.30012 -2.357,1.6855 0,1.0958 -3.14452,0.82098 -3.5796,-0.31284 z m 65.06765,-0.31981 c -0.45797,-0.73334 -1.41312,-1.33334 -2.12256,-1.33334 -3.10057,0 -4.74276,-7.12858 -2.03215,-8.82138 0.73333,-0.45797 1.33333,-1.13835 1.33333,-1.51195 0,-0.3736 -0.6,-1.05398 -1.33333,-1.51195 -1.03297,-0.6451 -1.33333,-1.55469 -1.33333,-4.0377 0,-2.84131 0.27208,-3.4459 2.39759,-5.32768 1.93044,-1.70909 2.97605,-2.12267 5.36644,-2.12267 1.63287,0 3.8496,0.45546 4.92608,1.01213 1.80641,0.93413 2.26053,1.79313 2.78393,5.26596 0.25648,1.70177 1.85929,2.19301 1.85929,0.56984 0,-2.87331 6.08495,-6.84793 10.48384,-6.84793 3.67846,0 6.8913,1.99133 8.71815,5.40356 1.28374,2.39778 1.5232,3.6853 1.31873,7.09057 -0.16569,2.75958 -0.60528,4.44342 -1.30531,5 -0.58052,0.46156 -1.23428,1.61277 -1.4528,2.55825 -0.54264,2.34783 -2.95752,3.28095 -8.49095,3.28095 -4.86625,0 -5.09377,-0.11527 -8.49795,-4.30554 -1.2416,-1.52832 -2.28078,-0.98325 -2.9344,1.53916 -0.43306,1.6712 -1.00178,2.23221 -2.58365,2.54859 -1.11559,0.22312 -2.37667,0.9634 -2.80237,1.64506 -1.01768,1.62957 -3.25273,1.58073 -4.29858,-0.0939 z m 4.79076,-5.07133 c 1.44743,-0.55543 1.32238,-1.42048 -0.2788,-1.92867 -0.73334,-0.23275 -1.33334,-0.82087 -1.33334,-1.30694 0,-1.25748 -1.86853,-1.81033 -3.38162,-1.00055 -3.64117,1.94869 0.90501,5.80517 4.99376,4.23616 z m 20.25453,-0.39534 c 0.48605,-0.48605 0.8,-2.84938 0.8,-6.02222 0,-5.0698 -0.0674,-5.28968 -2.31111,-7.53333 -1.27111,-1.27112 -2.56708,-2.31112 -2.87993,-2.31112 -0.31285,0 -1.59785,0.91872 -2.85555,2.0416 -2.1382,1.90898 -2.28674,2.30956 -2.28674,6.16667 0,3.59759 0.22958,4.35078 1.79545,5.89022 0.9875,0.97083 2.1875,1.92215 2.66667,2.11403 1.60592,0.64311 4.2635,0.46186 5.07121,-0.34585 z m -16.71552,-8.97676 c 0.14057,-0.42722 -0.36093,-0.97243 -1.11445,-1.21159 -0.75352,-0.23916 -1.37003,-0.8444 -1.37003,-1.34498 0,-0.50059 -0.57229,-1.09179 -1.27175,-1.31379 -0.69946,-0.222 -1.44004,-0.84222 -1.64574,-1.37826 -0.48093,-1.25329 -1.74918,-1.26746 -1.74918,-0.0196 0,0.52529 -0.6,1.14551 -1.33333,1.37826 -2.0812,0.66055 -1.57369,1.56155 1.16667,2.07123 1.375,0.25573 2.90396,1.0364 3.3977,1.7348 0.95414,1.34966 3.4858,1.40383 3.92011,0.0839 z m 42.51552,14.44343 c -0.66366,-0.73334 -1.74314,-1.33334 -2.39885,-1.33334 -3.01812,0 -4.58905,-7.16357 -1.93448,-8.82138 0.73333,-0.45797 1.33333,-1.06051 1.33333,-1.33898 0,-0.27847 -0.6,-1.1063 -1.33333,-1.83964 -0.92143,-0.92143 -1.33334,-2.22222 -1.33334,-4.21066 0,-2.46515 0.34347,-3.18142 2.3976,-5 1.93044,-1.70909 2.97604,-2.12267 5.36644,-2.12267 4.98651,0 7.5693,1.93875 7.5693,5.68185 0,2.40006 1.07866,2.54246 2.02125,0.26684 1.12624,-2.71897 6.71099,-5.93399 10.32248,-5.94243 6.41346,-0.015 10.61794,5.14419 10.17699,12.48787 -0.16569,2.75958 -0.60528,4.44342 -1.30531,5 -0.58052,0.46156 -1.23428,1.61277 -1.4528,2.55825 -0.54264,2.34783 -2.95752,3.28095 -8.49095,3.28095 -4.86625,0 -5.09377,-0.11527 -8.49795,-4.30554 -1.24282,-1.52982 -2.15839,-1.02552 -3.02911,1.66845 -0.58156,1.7993 -1.15118,2.35045 -2.60135,2.51697 -1.02121,0.11726 -2.21838,0.79226 -2.66037,1.5 -1.03392,1.65558 -2.6253,1.63773 -4.14955,-0.0465 z m 5.5826,-5.72943 c 0.22957,-0.24921 0.0264,-0.59237 -0.45145,-0.76257 -0.47786,-0.1702 -1.56482,-1.06004 -2.41546,-1.97742 -1.30969,-1.41244 -1.76384,-1.55172 -2.9645,-0.90915 -3.05004,1.63233 -0.64705,5.08583 3.1141,4.47548 1.26495,-0.20528 2.48774,-0.57713 2.71731,-0.82634 z m 19.39395,-0.22674 c 0.37957,-0.70923 0.69012,-3.38032 0.69012,-5.93575 0,-4.25375 -0.17535,-4.8443 -2.07585,-6.99094 -2.36674,-2.67329 -3.54043,-2.69361 -6.32866,-0.10957 -1.7247,1.5984 -1.92882,2.22173 -1.92882,5.89 0,3.57301 0.2317,4.33022 1.79545,5.86758 2.10323,2.06774 2.90417,2.44449 5.34776,2.51555 1.14495,0.0333 2.06342,-0.42112 2.5,-1.23687 z m -16.8254,-8.48726 c 0.14057,-0.42722 -0.36094,-0.97243 -1.11445,-1.21159 -0.75352,-0.23916 -1.37003,-0.8444 -1.37003,-1.34498 0,-0.50059 -0.57229,-1.09179 -1.27175,-1.31379 -0.69946,-0.222 -1.44005,-0.84222 -1.64574,-1.37826 -0.48093,-1.25329 -1.74918,-1.26746 -1.74918,-0.0196 0,0.52529 -0.6,1.14551 -1.33333,1.37826 -2.0812,0.66055 -1.5737,1.56155 1.16666,2.07123 1.375,0.25573 2.90397,1.0364 3.39771,1.7348 0.95414,1.34966 3.48579,1.40383 3.92011,0.0839 z m 74.18219,14.78946 c 0,-0.54301 -0.825,-1.1674 -1.83334,-1.38752 -3.33027,-0.72701 -5.39779,-1.73203 -5.86895,-2.85288 -3.11999,-7.42226 -1.98273,-16.83098 2.15835,-17.85633 1.0325,-0.25565 2.26928,-1.01632 2.7484,-1.69039 0.66562,-0.93644 1.73935,-1.22558 4.55129,-1.22558 3.19295,0 3.9426,0.26246 5.66265,1.98251 1.8079,1.8079 1.96486,2.32166 1.78206,5.83333 l -0.20046,3.85083 -6.44759,0.33333 c -3.54617,0.18333 -6.66811,0.55528 -6.93765,0.82654 -0.26953,0.27126 0.0659,1.72613 0.74544,3.23304 1.88638,4.18325 6.06032,5.22379 9.21744,2.29787 2.25272,-2.08775 3.75569,-1.56794 3.75569,1.29891 0,2.49888 -0.79883,3.33756 -3.78727,3.97618 -1.16633,0.24924 -2.47806,0.88388 -2.91496,1.41031 -1.0358,1.24807 -2.6311,1.22979 -2.6311,-0.0301 z m 2.34348,-18.37802 c 0.54538,-1.71833 -0.74984,-3.35387 -2.22556,-2.81035 -1.64059,0.60425 -2.10922,1.61293 -1.38128,2.97308 0.86904,1.62383 3.07135,1.52446 3.60684,-0.16273 z m 187.46336,18.03199 c -0.23353,-0.893 -0.90934,-1.33334 -2.04639,-1.33334 -3.95429,0 -6.42711,-2.56192 -6.42711,-6.65869 0,-1.0611 -0.33536,-2.13654 -0.74524,-2.38986 -0.9152,-0.56563 -0.35306,-5.29455 1.02002,-8.58083 0.6724,-1.60927 1.54756,-2.466 2.84795,-2.78798 1.0325,-0.25565 2.26928,-1.01632 2.7484,-1.69039 0.66562,-0.93644 1.73935,-1.22558 4.55129,-1.22558 3.19294,0 3.9426,0.26246 5.66265,1.98251 1.8079,1.8079 1.96485,2.32166 1.78205,5.83333 l -0.20046,3.85083 -6.53032,0.19117 c -7.47876,0.21894 -7.95293,0.59463 -5.87967,4.65856 1.96379,3.84934 5.94147,4.66414 8.98763,1.84105 2.25272,-2.08775 3.7557,-1.56794 3.7557,1.29891 0,2.49888 -0.79884,3.33756 -3.78727,3.97618 -1.16633,0.24924 -2.47807,0.88388 -2.91497,1.41031 -1.1264,1.35725 -2.41588,1.18549 -2.82426,-0.37618 z m 2.73362,-18.4549 c 0.29004,-2.03734 -2.0564,-3.26726 -3.49284,-1.83082 -0.80294,0.80295 -0.88042,1.35244 -0.33452,2.37247 0.95315,1.78098 3.549,1.41362 3.82736,-0.54165 z m 91.93308,18.4549 c -0.23353,-0.893 -0.9094,-1.33334 -2.0464,-1.33334 -2.25667,0 -4.912,-1.25651 -5.474,-2.5903 -3.1098,-7.38051 -1.96293,-16.80383 2.1696,-17.82706 1.03247,-0.25565 2.26927,-1.01632 2.7484,-1.69039 0.6656,-0.93644 1.73933,-1.22558 4.55127,-1.22558 3.19293,0 3.9426,0.26246 5.66266,1.98251 1.80794,1.8079 1.96487,2.32166 1.78207,5.83333 l -0.20047,3.85083 -6.4476,0.33333 c -3.54613,0.18333 -6.66806,0.55528 -6.9376,0.82654 -0.26953,0.27126 0.066,1.72613 0.7454,3.23304 1.8864,4.18325 6.06034,5.22379 9.21747,2.29787 2.23567,-2.07196 3.75567,-1.56719 3.75567,1.24721 0,2.48238 -1.01727,3.72867 -3.0434,3.72867 -0.79394,0 -2.2062,0.6 -3.13854,1.33334 -0.93226,0.73333 -1.98773,1.33333 -2.34546,1.33333 -0.35774,0 -0.80734,-0.6 -0.99907,-1.33333 z m 2.65347,-17.75728 c 0.44546,-1.16078 -0.4224,-3.00786 -1.59727,-3.39947 -0.38953,-0.12986 -1.19253,0.24812 -1.78433,0.83995 -0.81614,0.81608 -0.90967,1.38701 -0.38727,2.36309 0.84027,1.57008 3.19467,1.69278 3.76887,0.19643 z m -47.62701,17.7365 c -2.07693,-0.83481 -1.87446,-1.91804 0.51407,-2.75069 2.76247,-0.96301 3.31927,-2.332 3.31927,-8.16125 0,-4.33807 -0.1812,-5.11735 -1.33334,-5.73395 -1.7744,-0.94962 -1.69213,-1.42679 0.67247,-3.90112 2.31593,-2.42339 4.37573,-2.71423 5.01253,-0.70775 l 0.44154,1.39113 1.29606,-1.39113 c 1.08654,-1.16628 2.08674,-1.39113 6.1884,-1.39113 5.63741,0 7.28741,0.98028 5.05334,3.00213 -1.87967,1.70107 -1.83627,6.8424 0.0783,9.27641 0.77514,0.98542 1.59707,1.60397 1.82647,1.37455 0.2294,-0.22942 0.59127,-2.78698 0.80407,-5.68346 0.47373,-6.44689 1.54146,-7.97446 5.56346,-7.95942 1.50147,0.006 3.17214,0.28981 3.71254,0.63155 0.83546,0.52833 0.768,0.85116 -0.4506,2.15646 -0.7882,0.84431 -1.64874,2.40353 -1.91234,3.46494 -0.2636,1.0614 -1.0358,2.4864 -1.71606,3.16666 -0.68027,0.68027 -1.23687,1.92018 -1.23687,2.75535 0,0.83518 -0.6,2.03225 -1.33333,2.66015 -0.84794,0.72599 -1.33334,1.96662 -1.33334,3.40763 0,1.2463 -0.5686,2.9682 -1.26353,3.82643 -1.81907,2.24642 -4.74687,1.17302 -5.58107,-2.04613 -0.3274,-1.26365 -1.01947,-2.61308 -1.5378,-2.99873 -0.51833,-0.38565 -1.13667,-2.20119 -1.37413,-4.03452 -0.24674,-1.90555 -0.96247,-3.84418 -1.67087,-4.52597 -0.6816,-0.65595 -1.23927,-1.94865 -1.23927,-2.87268 0,-0.92402 -0.26206,-1.51807 -0.5824,-1.3201 -0.32033,0.19797 -0.71606,2.90713 -0.87946,6.02036 -0.21234,4.04557 -0.6168,6.01365 -1.4176,6.89857 -1.54887,1.71142 -1.44427,1.92404 1.1894,2.41812 2.8468,0.53405 3.6228,1.62796 1.9978,2.81617 -1.40667,1.0286 -10.40514,1.17714 -12.80774,0.21142 z M 11,46.968336 c -0.366666,-0.10177 -1.4916659,-0.367 -2.4999999,-0.58939 -2.134306,-0.47073 -2.434351,-2.09834 -0.5,-2.71228 0.733334,-0.23275 1.333334,-0.84241 1.333334,-1.3548 0,-0.51239 0.560369,-1.23152 1.2452639,-1.59807 0.684896,-0.36654 1.435933,-1.61978 1.668972,-2.78498 0.233038,-1.16519 0.87076,-2.45084 1.417158,-2.85701 0.546399,-0.40616 1.191075,-2.23847 1.432613,-4.07181 0.241538,-1.83333 0.993447,-4.04879 1.67091,-4.92324 0.712434,-0.91958 1.23175,-2.67904 1.23175,-4.17319 0,-1.75829 0.425808,-2.94787 1.333333,-3.72492 0.733333,-0.6279 1.333333,-1.83496 1.333333,-2.68236 0,-2.05122 4.156116,-6.1629498 6.229482,-6.1629498 2.128317,0 2.986485,1.1561998 3.702377,4.9881798 0.326689,1.74868 0.966874,3.40989 1.422632,3.69156 0.455758,0.28167 1.020746,2.60786 1.255532,5.16929 0.23478,2.56144 0.84027,5.15528 1.34554,5.76409 0.50527,0.60881 1.16565,2.66932 1.46752,4.57892 0.30186,1.90959 0.96579,3.77686 1.4754,4.1495 0.5096,0.37263 1.13855,1.64275 1.39767,2.8225 0.39272,1.78807 0.90647,2.26222 3.08748,2.8495 1.48814,0.40072 2.61637,1.11358 2.61637,1.65312 0,2.02768 -8.92787,3.00739 -13.500002,1.48144 -2.164829,-0.72251 -2.351052,-1.83739 -0.5,-2.99339 1.710384,-1.06815 1.710384,-3.60684 0,-5.15471 -0.733334,-0.66366 -1.333334,-1.72342 -1.333334,-2.35503 0,-1.90989 -1.825099,-2.82192 -5.57956,-2.78818 -4.818985,0.0433 -7.087107,2.02006 -7.087107,6.17669 0,1.97878 0.424369,3.3323 1.355541,4.32349 1.243696,1.32385 1.265792,1.51739 0.267805,2.34565 -0.978162,0.8118 -5.596381,1.40246 -7.290013,0.93238 z m 14.976545,-18.92451 c 1.168382,-2.18314 0.774421,-4.42108 -1.220086,-6.93084 -1.050614,-1.32202 -2.100614,-2.21327 -2.333333,-1.98056 -0.232719,0.23272 -0.423125,1.82663 -0.423125,3.54203 0,2.28437 -0.360974,3.44557 -1.34909,4.3398 -1.633713,1.47849 -0.754058,2.29341 2.4923,2.30887 1.443749,0.007 2.368441,-0.41064 2.833334,-1.2793 z m 165.255175,18.65284 c -2.69293,-0.51496 -7.23171,-4.34035 -7.23171,-6.09507 0,-0.60775 -0.45,-1.47847 -1,-1.93493 -1.4687,-1.2189 -1.26845,-5.11653 0.33333,-6.48802 0.73333,-0.6279 1.33333,-1.78823 1.33333,-2.57851 0,-1.70993 1.01622,-2.66115 3.51225,-3.28762 1.01096,-0.25373 2.11039,-0.94785 2.44315,-1.54248 0.45042,-0.80485 1.60132,-1.08115 4.50346,-1.08115 4.4878,0 7.48637,1.66905 9.33677,5.19701 1.51971,2.89747 1.61868,10.91502 0.14813,12.00086 -0.58092,0.42895 -1.25947,1.59625 -1.50786,2.594 -0.2484,0.99775 -0.9731,2.08728 -1.61044,2.42118 -1.6927,0.8868 -7.4478,1.33257 -10.26041,0.79473 z m 6.10162,-4.69667 c 1.10475,-1.10475 1.33333,-2.22222 1.33333,-6.51833 0,-6.49872 -0.94276,-8.14833 -4.65685,-8.14833 -3.37031,0 -4.48405,1.22777 -5.02241,5.53659 -0.57175,4.57618 0.57848,8.99592 2.54756,9.7889 2.41994,0.97455 4.3887,0.75085 5.79837,-0.65883 z m 86.17254,4.84188 c -3.22544,-0.5751 -4.67732,-5.76008 -2.24252,-8.00854 3.21227,-2.96646 4.93864,-4.16667 5.99328,-4.16667 0.62886,0 1.50337,-0.36 1.94337,-0.8 0.92125,-0.92125 1.04939,-4.44093 0.20991,-5.76559 -0.74456,-1.17488 -2.77917,-0.74982 -3.50512,0.73226 -0.3143,0.64166 -0.82861,1.69166 -1.14291,2.33333 -0.3143,0.64167 -1.08803,1.26823 -1.7194,1.39237 -1.65213,0.32484 -4.37581,-0.46575 -4.37581,-1.27015 0,-0.37714 1.53291,-2.21863 3.40648,-4.09219 2.92791,-2.92791 3.8442,-3.44854 6.52227,-3.70586 2.79526,-0.26859 3.37544,-0.0695 5.63968,1.93508 l 2.52389,2.23448 -0.16352,7.61167 c -0.15642,7.28097 -0.10049,7.63499 1.28717,8.14832 1.94636,0.72001 1.83873,2.46508 -0.19984,3.24015 -1.59262,0.60551 -11.11487,0.72731 -14.17693,0.18134 z m 5.82042,-4.50005 c 1.72422,-2.07756 -1.20096,-4.75287 -3.10973,-2.8441 -0.8008,0.8008 -0.85496,1.30941 -0.25819,2.4245 0.88374,1.65127 2.20872,1.81634 3.36792,0.4196 z m 184.16402,4.30048 c -2.20515,-0.88591 -2.91415,-3.50874 -2.76634,-10.23349 0.12219,-5.55951 0.0318,-6.01309 -1.29631,-6.50439 -0.99874,-0.36946 -1.42766,-1.0954 -1.42766,-2.41628 0,-2.27451 1.07704,-3.48815 3.09554,-3.48815 0.82254,0 1.88754,-0.54336 2.36666,-1.20747 1.4921,-2.06817 2.31042,-2.15615 4.15495,-0.4467 1.24031,1.14948 2.54733,1.65417 4.28387,1.65417 2.83529,0 4.09898,0.94082 4.09898,3.05171 0,1.96912 -1.09009,2.69664 -4.85776,3.24204 l -3.19109,0.46194 0.19109,6.06431 0.1911,6.06431 2.11882,0.72451 c 2.95392,1.01007 3.41855,1.6828 1.91938,2.77903 -1.43452,1.04894 -6.53958,1.19521 -8.88123,0.25446 z m 120.89749,0.0657 c -1.43672,-0.29406 -2.96979,-1.02366 -3.40683,-1.62135 -0.43704,-0.59769 -1.08749,-1.08671 -1.44544,-1.08671 -0.97998,0 -4.20219,-6.76077 -4.20219,-8.81693 0,-0.98879 0.57147,-2.33448 1.26995,-2.99043 0.69846,-0.65595 1.37346,-1.93983 1.5,-2.85306 0.15058,-1.08682 0.92097,-1.96243 2.23005,-2.53465 1.1,-0.48082 2.45,-1.15935 3,-1.50783 2.44771,-1.5509 4.53007,-2.03218 7.11975,-1.64551 5.60967,0.83758 8.42443,4.77924 8.49915,11.90183 0.0359,3.42322 -0.2144,4.747 -1.00847,5.33333 -0.58093,0.42896 -1.25947,1.59626 -1.50787,2.59401 -0.2484,0.99775 -0.9962,2.10553 -1.66178,2.46174 -1.79661,0.96151 -7.40805,1.37512 -10.38632,0.76556 z m 6.27887,-4.70806 c 1.10476,-1.10475 1.33334,-2.22222 1.33334,-6.51833 0,-6.46815 -0.94876,-8.14834 -4.60115,-8.14834 -3.24695,0 -4.52153,1.42488 -5.08689,5.68673 -0.58078,4.37819 0.6061,8.85338 2.55634,9.63877 2.41993,0.97454 4.38869,0.75085 5.79836,-0.65883 z m -543.4542,2.14484 c -1.58984,-1.43633 -2.54581,-2.89458 -2.54581,-3.88343 0,-0.87089 -0.6,-1.95815 -1.33334,-2.41612 C 52.6,37.387256 52,36.556876 52,35.999946 c 0,-0.55693 0.6,-1.38731 1.33333,-1.84528 0.73334,-0.45798 1.33334,-1.40561 1.33334,-2.10584 0,-1.95369 0.71509,-3.38221 1.69307,-3.38221 0.48606,0 1.06924,-0.525 1.29595,-1.16667 0.77912,-2.20516 4.34042,-4.36202 7.74206,-4.68887 l 3.26892,-0.3141 v -4.83387 c 0,-4.25339 -0.18013,-4.96155 -1.5,-5.89718 -1.47475,-1.04542 -1.47822,-1.08045 -0.20592,-2.0813098 1.54498,-1.21536 7.09505,-1.36221 8.23925,-0.218 0.57734,0.5773398 0.8,5.2095998 0.8,16.6432098 0,15.16091 0.0574,15.87394 1.33334,16.55679 1.66492,0.89104 1.71782,2.41398 0.11366,3.2725 -0.67081,0.35901 -4.9252,0.61965 -9.45419,0.5792 l -8.23452,-0.0735 z m 11.43312,-7.64484 c -0.019,-5.55817 -0.18029,-6.34757 -1.63469,-8 -2.10394,-2.39041 -3.87101,-2.31638 -6.33844,0.26554 -1.7107,1.79008 -2.0058,2.61577 -2.0058,5.61215 0,3.98028 0.46075,5.62231 1.57763,5.62231 0.42257,0 1.14301,0.6 1.60099,1.33333 0.6319,1.01184 1.55468,1.33334 3.82703,1.33334 h 2.99435 z m 12.57446,9.47326 C 79.21124,45.498986 78.8729,43.626616 80.62645,42.688136 81.8509,42.032836 82,41.327016 82,36.186126 c 0,-5.06296 -0.1831,-5.96181 -1.5,-7.36361 -1.47425,-1.56928 -1.47778,-1.61293 -0.20591,-2.54296 0.71175,-0.52045 1.86366,-0.94628 2.55981,-0.94628 0.69614,0 1.79208,-0.65002 2.4354,-1.4445 1.74272,-2.15216 3.2017,-1.18218 3.75316,2.49522 0.49939,3.3302 0.0469,12.52191 -0.70995,14.42137 -0.33791,0.84805 -0.0251,1.24633 1.22531,1.56017 2.03136,0.50984 2.70479,1.91987 1.42442,2.98249 -1.00325,0.83262 -7.20187,1.22959 -9.76218,0.62518 z m 12.94661,0.0103 c -2.1052,-0.85225 -1.86585,-2.39224 0.5,-3.21698 l 2,-0.69721 v -6.02903 c 0,-5.30702 -0.15967,-6.12874 -1.33333,-6.86171 -1.8263,-1.14054 -1.69724,-1.67798 1.01797,-4.23875 2.36709,-2.23245 3.87429,-2.3842 4.61105,-0.46424 0.3516,0.91626 0.55589,0.89701 1.72681,-0.16266 1.58298,-1.43257 5.18471,-1.58643 6.02594,-0.25741 0.3288,0.51944 0.60241,1.62588 0.60802,2.45874 0.0111,1.65284 -1.42365,2.48102 -5.41633,3.12636 -2.78078,0.44945 -3.21684,1.38112 -3.23103,6.90317 -0.011,4.30454 0.85988,6.12284 2.93273,6.12284 0.85886,0 1.96198,0.48247 2.45138,1.07214 0.75272,0.90698 0.71203,1.20213 -0.26411,1.9159 -1.34923,0.98658 -9.43929,1.21535 -11.6291,0.32884 z m 60.7438,-1.69147 c -2.13647,-2.01495 -2.2438,-2.34181 -2.2438,-6.83299 0,-4.10603 0.19019,-4.85003 1.46875,-5.74557 l 1.46876,-1.02875 -1.46876,-1.36835 c -2.10474,-1.96087 -1.86024,-4.43824 0.69792,-7.07174 2.49984,-2.57347 3.50185,-2.7764 4.5,-0.91134 0.51842,0.96869 1.39588,1.33333 3.20845,1.33333 4.47977,0 6.92036,3.10929 4.4106,5.61905 -0.57619,0.57619 -1.94592,1.04762 -3.04383,1.04762 -3.99328,0 -4.57522,0.83399 -4.57522,6.55679 0,5.25984 0.59816,6.77654 2.67258,6.77654 0.58992,0 1.65492,0.45 2.36666,1 1.27949,0.98872 1.27914,1.01154 -0.0308,2.02253 -2.26698,1.74961 -6.80806,1.07691 -9.4313,-1.39712 z m 16.76266,1.70792 c -1.83877,-0.2304 -2.72888,-0.6942 -2.8826,-1.50201 -0.22616,-1.18848 0.12531,-1.40936 3.37614,-2.12167 l 1.83334,-0.40172 v -6.0471 c 0,-5.45638 -0.14569,-6.16508 -1.49138,-7.25475 l -1.49138,-1.20765 2.32471,-2.39212 c 1.27859,-1.31566 2.62471,-2.39211 2.99138,-2.39211 0.36667,0 1.71279,1.07645 2.99138,2.39211 l 2.32471,2.39212 -1.49138,1.20765 c -1.34114,1.08599 -1.49138,1.80315 -1.49138,7.11929 0,5.15909 0.17622,6.06252 1.38422,7.09685 2.74288,2.34852 -1.59824,3.96061 -8.37776,3.11111 z m 37.13803,-0.14909 c -2.48609,-0.64421 -2.72119,-1.72746 -0.74259,-3.42159 1.29477,-1.10862 1.39004,-1.79491 1.24681,-8.98149 -0.19605,-9.83712 -0.34058,-9.13755 2.09628,-10.14693 1.91037,-0.7913 2.17257,-0.73593 3.24455,0.68523 1.12075,1.48581 1.19386,1.49673 1.87479,0.27999 1.03399,-1.84764 6.70361,-1.76376 9.25345,0.1369 3.25909,2.42935 4.54889,5.40202 4.54889,10.48406 0,3.66136 -0.24171,4.73048 -1.23343,5.45564 -1.4451,1.05668 -0.9214,2.32395 0.96036,2.32395 1.6231,0 2.4718,1.92069 1.20355,2.72374 -0.51177,0.32405 -2.76875,0.59377 -5.01552,0.59939 -5.00519,0.0125 -6.26087,-1.00354 -4.18901,-3.38957 1.23436,-1.42154 1.36446,-2.28686 1.16512,-7.74945 -0.1911,-5.23669 -0.43826,-6.36291 -1.66548,-7.58922 l -1.44108,-1.44001 -1.72559,1.72559 c -1.60956,1.60956 -1.72559,2.14352 -1.72559,7.94107 0,5.50842 0.16084,6.35318 1.41381,7.42602 1.19354,1.02193 1.27144,1.34872 0.5,2.09748 -1.12816,1.09498 -6.87657,1.58878 -9.76932,0.8392 z m 32.17697,-0.0731 c -1.99566,-0.67 -2.14694,-2.13414 -0.32146,-3.11111 1.18098,-0.63204 1.33334,-1.39588 1.33334,-6.68448 0,-5.24889 -0.16123,-6.07158 -1.33334,-6.80357 -0.73333,-0.45798 -1.33333,-1.19996 -1.33333,-1.64886 0,-0.95095 2.08823,-2.19643 3.68265,-2.19643 0.60699,0 1.62999,-0.65002 2.27332,-1.4445 1.74271,-2.15216 3.20169,-1.18218 3.75315,2.49522 0.49939,3.3302 0.0469,12.5219 -0.70995,14.42137 -0.3379,0.84805 -0.0251,1.24633 1.22531,1.56016 1.79377,0.45021 2.59589,1.64232 1.88051,2.79478 -0.55718,0.8976 -8.26008,1.3527 -10.4502,0.61742 z m 62.84521,0.16882 c -1.75812,-1.02401 -1.40758,-2.23001 0.9015,-3.1016 l 2.06818,-0.78064 -0.4534,-12.19885 c -0.24937,-6.70936 -0.59539,-12.7085 -0.76894,-13.33141 -0.17355,-0.62291 -0.91726,-1.32354 -1.65268,-1.55696 -2.03244,-0.64507 -1.22658,-2.50875 1.40992,-3.26073 1.28082,-0.3653 2.80703,-1.25097 3.39158,-1.9681398 1.42236,-1.74504 2.98094,-1.02946 3.50905,1.6110998 0.23547,1.17735 0.42813,8.58004 0.42813,16.45043 0,14.01815 0.0306,14.33576 1.5,15.58289 1.47494,1.25182 1.47838,1.2898 0.20591,2.27353 -1.4974,1.15762 -8.70395,1.34934 -10.53925,0.28038 z m 106.33334,0.0326 c -1.85049,-0.7438 -1.89287,-1.58635 -0.16667,-3.31256 1.11138,-1.11138 1.33334,-2.22222 1.33334,-6.67319 0,-4.51487 -0.206,-5.51624 -1.33334,-6.48149 -1.74945,-1.49793 -1.68512,-2.94908 0.20964,-4.72911 1.82628,-1.7157 4.80301,-1.9135 5.3996,-0.3588 0.38753,1.00989 0.50792,1.00989 1.62382,0 1.77367,-1.60515 6.82354,-1.45718 8.27892,0.24259 1.42882,1.66874 2.26376,1.66832 5.00414,-0.003 3.16687,-1.93084 8.77144,-1.84191 10.66036,0.16916 1.77509,1.88987 2.78626,6.21233 2.80722,12 0.0133,3.65321 0.2769,4.7606 1.40118,5.88488 0.76168,0.76168 1.23258,1.78178 1.04642,2.26689 -0.69367,1.80768 -9.00242,2.05537 -11.7608,0.3506 -0.81245,-0.50213 -0.72952,-0.85361 0.51364,-2.17689 1.32864,-1.41428 1.48147,-2.26561 1.47232,-8.20178 -0.005,-3.64304 -0.26814,-7.03077 -0.58338,-7.5283 -0.40102,-0.63289 -1.21748,-0.76308 -2.71829,-0.43345 -1.61715,0.35519 -2.38484,1.04492 -3.11918,2.80245 -1.19103,2.85052 -1.5621,12.31399 -0.49681,12.67007 0.40633,0.13582 1.30633,0.68635 2,1.22339 1.23326,0.95481 1.23166,0.99463 -0.0721,1.79683 -2.57783,1.58607 -11.66667,0.89539 -11.66667,-0.8866 0,-0.3308 0.6,-1.20145 1.33334,-1.93478 1.15335,-1.15335 1.33333,-2.22222 1.33333,-7.91837 0,-8.27657 -0.67061,-9.14649 -4.40928,-5.71974 l -2.59072,2.37458 v 5.34551 c 0,4.39787 0.20683,5.46122 1.16667,5.99822 3.93642,2.20231 -2.03104,5.09565 -6.66667,3.23236 z m 108.80761,0.16566 c -3.33865,-0.50248 -4.30761,-0.90755 -4.30761,-1.8008 0,-0.53011 0.6,-1.28495 1.33334,-1.67742 1.18097,-0.63204 1.33333,-1.39588 1.33333,-6.68447 0,-5.24889 -0.16123,-6.07159 -1.33333,-6.80358 -0.73334,-0.45797 -1.33334,-1.19996 -1.33334,-1.64886 0,-0.95095 2.08823,-2.19642 3.68265,-2.19642 0.60699,0 1.62999,-0.65003 2.27332,-1.44451 1.74271,-2.15216 3.20169,-1.18218 3.75315,2.49522 0.4994,3.3302 0.0469,12.52191 -0.70994,14.42137 -0.33791,0.84805 -0.0251,1.24633 1.2253,1.56017 1.93686,0.48612 2.72383,1.9124 1.56923,2.84402 -0.85728,0.69172 -5.36362,1.25472 -7.4861,0.93528 z m 13.19172,0.0801 c -0.27463,-0.0596 -1.32433,-0.29031 -2.33266,-0.5127 -2.19091,-0.48321 -2.34367,-1.64566 -0.43144,-3.28296 1.29477,-1.10862 1.39004,-1.79491 1.24681,-8.9815 -0.19605,-9.83712 -0.34058,-9.13755 2.09628,-10.14693 1.91037,-0.7913 2.17257,-0.73592 3.24456,0.68524 1.12074,1.48581 1.19386,1.49673 1.87478,0.27999 1.034,-1.84765 6.70362,-1.76377 9.25346,0.1369 3.21316,2.39512 4.47271,5.30774 4.51286,10.43568 0.0293,3.73441 -0.19639,4.77148 -1.1974,5.50369 -1.44506,1.05704 -0.92146,2.32428 0.96036,2.32428 1.62309,0 2.47179,1.92069 1.20354,2.72374 -0.51176,0.32404 -2.76874,0.59377 -5.01552,0.59938 -4.95934,0.0124 -6.2588,-1.00499 -4.24674,-3.32491 1.09742,-1.26533 1.33006,-2.48549 1.32196,-6.93355 -0.0109,-5.94813 -0.94166,-8.62339 -3.10916,-8.93593 -2.54244,-0.3666 -3.54768,2.14713 -3.54768,8.87144 0,5.32639 0.16638,6.1793 1.4138,7.24738 1.24023,1.06191 1.29418,1.33018 0.4394,2.18496 -0.80368,0.80368 -5.7998,1.53536 -7.68721,1.1258 z m 82.83401,-0.0544 c -4.82858,-0.80562 -5.44572,-1.58843 -2.94219,-3.73202 1.29633,-1.10996 1.37596,-1.75398 1.16837,-9.44987 -0.13276,-4.92179 0.0459,-8.52182 0.44219,-8.90985 0.36573,-0.35812 1.46532,-0.84868 2.44352,-1.09015 1.42092,-0.35076 1.94127,-0.135 2.58776,1.07297 0.79061,1.47728 0.83081,1.48245 1.75014,0.22519 1.35237,-1.84948 6.78838,-1.78181 9.33466,0.11621 3.25908,2.42934 4.54888,5.40201 4.54888,10.48405 0,3.74239 -0.23118,4.72278 -1.2975,5.5025 -1.42026,1.03852 -0.9026,1.99133 1.2975,2.38818 0.8051,0.14522 1.33334,0.76512 1.33334,1.56471 0,1.1785 -0.52035,1.34552 -4.72921,1.51797 -5.70573,0.23379 -7.10189,-0.6993 -4.87818,-3.26021 1.23436,-1.42154 1.36446,-2.28686 1.16512,-7.74945 -0.1911,-5.23669 -0.43825,-6.36291 -1.66548,-7.58922 l -1.44107,-1.44001 -1.7256,1.72559 c -1.60956,1.60956 -1.72558,2.14352 -1.72558,7.94107 0,5.50842 0.16083,6.35318 1.4138,7.42602 1.19494,1.02313 1.27234,1.34931 0.5,2.10695 -0.92942,0.91172 -5.16011,1.55319 -7.58047,1.14937 z m -478.32021,-1.02684 c -1.85855,-0.94038 -3.3219,-3.40526 -3.33665,-5.62025 -0.005,-0.8121 -0.60982,-1.79765 -1.34316,-2.19012 -0.73333,-0.39247 -1.33333,-1.14247 -1.33333,-1.66667 0,-0.5242 0.6,-1.2742 1.33333,-1.66667 0.77478,-0.41464 1.33334,-1.39588 1.33334,-2.34229 0,-1.08609 1.22642,-2.85514 3.68116,-5.30988 3.49068,-3.49069 3.85514,-3.68116 7.04382,-3.68116 3.31774,0 5.8087,0.83457 6.76481,2.26647 0.89421,1.33921 0.57347,6.41776 -0.42962,6.80269 -1.27041,0.4875 -5.06017,-1.53863 -5.06017,-2.70533 0,-1.71475 -1.78728,-2.83079 -4.01076,-2.50446 -1.68222,0.2469 -2.33801,0.81251 -3.1245,2.69484 -1.12096,2.68286 -0.7769,6.50548 0.69156,7.6834 0.52274,0.41931 1.1448,1.598 1.38236,2.6193 0.76433,3.28607 5.21546,3.89638 7.89944,1.08313 1.5661,-1.64153 3.1619,-0.92142 3.1619,1.42682 0,2.93117 -2.09194,3.96818 -7.98168,3.95665 -2.76008,-0.005 -5.76241,-0.38632 -6.67185,-0.84647 z m 351.43104,0.1482 c -2.04637,-0.82019 -1.51614,-2.23507 0.94058,-2.50987 2.87966,-0.32211 3.44096,-1.22421 1.7449,-2.80433 -1.81866,-1.69434 -1.86117,-3.59452 -0.12965,-5.79579 1.13783,-1.44651 1.33333,-2.70452 1.33333,-8.57939 v -6.88434 l -2.66666,-2.64014 c -1.46667,-1.45209 -2.66667,-2.93158 -2.66667,-3.28777 0,-0.76224 1.59739,-1.45694 3.35005,-1.45694 0.68256,0 1.6804,-0.62732 2.21743,-1.3940398 0.55072,-0.78626 1.51184,-1.29109 2.20447,-1.15792 1.44377,0.27758 2.10265,3.6200698 2.17864,11.0519598 0.0272,2.65833 0.32441,4.83333 0.66053,4.83333 0.3361,0 0.72379,-0.33805 0.86151,-0.75122 0.37347,-1.1204 6.85783,-1.5498 9.13842,-0.60515 2.57891,1.06822 2.82725,1.82746 3.16934,9.6897 0.35733,8.21227 0.64304,9.66667 1.89898,9.66667 1.42419,0 1.21481,1.83133 -0.30221,2.64321 -3.44642,1.84447 -13.6148,-0.0103 -10.71049,-1.95366 0.55,-0.36802 1.65729,-0.67373 2.46065,-0.67934 1.99762,-0.014 2.55745,-1.18356 1.25524,-2.62248 -0.64575,-0.71355 -1.2483,-2.98242 -1.49574,-5.63208 -0.31384,-3.36097 -0.79502,-4.84792 -1.98391,-6.13075 l -1.56957,-1.6936 -1.66667,1.79837 c -1.49997,1.61849 -1.66667,2.35281 -1.66667,7.34171 0,4.88762 0.17744,5.70967 1.5,6.94936 1.47372,1.38138 1.47732,1.42273 0.20592,2.35931 -1.46084,1.07612 -7.81007,1.22783 -10.26175,0.24519 z m 281.44944,-0.99538 c -0.2188,-0.57025 -0.0797,-1.69525 0.30913,-2.5 0.63614,-1.31643 0.71154,-1.21243 0.75214,1.03681 0.0473,2.61912 -0.3876,3.2187 -1.06127,1.46319 z m -70.93874,-26.38085 c -0.55886,-1.04429 -0.564,-1.84496 -0.0193,-3.04001 0.622,-1.3651 1.135,-1.58958 3.23527,-1.41567 2.18066,0.18056 2.5232,0.44342 2.71093,2.08032 0.2782,2.42632 -0.90113,3.79302 -3.27307,3.79302 -1.25013,0 -2.15306,-0.48235 -2.6536,-1.41766 z M 81.71414,15.754616 c -2.61465,-2.46593 -2.92421,-3.40344 -1.32628,-4.01662 1.35598,-0.52034 4.53498,-0.52034 5.89095,0 2.07453,0.79607 0.6672,6.262 -1.61229,6.262 -0.31437,0 -1.64294,-1.01042 -2.95238,-2.24538 z m 90.92589,1.02453 c -3.02294,-2.44783 0.64448,-7.0532098 3.96316,-4.97674 1.56264,0.97773 1.76491,4.27966 0.32659,5.33138 -1.59583,1.16691 -2.50337,1.09188 -4.28975,-0.35464 z m 68.85998,-1.10676 c -1.19167,-1.26665 -2.16667,-2.57902 -2.16667,-2.91637 0,-0.82198 1.68892,-1.42268 4,-1.42268 3.03021,0 4,0.65228 4,2.69037 0,1.93497 -1.49048,3.98576 -2.88095,3.96399 -0.43214,-0.007 -1.76072,-1.04865 -2.95238,-2.31531 z m 275.54747,0.0822 c -1.30944,-1.23496 -2.3808,-2.55286 -2.3808,-2.92867 0,-0.88656 1.62416,-1.49261 4,-1.49261 3.13518,0 4,0.63521 4,2.93799 0,2.19998 -0.99183,3.72868 -2.4192,3.72868 -0.45056,0 -1.89056,-1.01043 -3.2,-2.24539 z"
     id="path12"
     inkscape:connector-curvature="0" />
</svg>
